# xmcd CD database file
#
# Track frame offsets:
#	150
#	18142
#	39077
#	66850
#	85965
#	106760
#	130695
#	157980
#	176702
#	200440
#	228467
#	259170
#
# Disc length: 4440 seconds
#
# Revision: 0
# Processed by: cddbd v1.5.1PL0 Copyright (c) Steve Scherf et al.
# Submitted via: CDex 1.51
#
DISCID=8f11560c
DTITLE=諫山実生 - 撫子の華
DYEAR=2003
DGENRE=JPop
TTITLE0=手紙
TTITLE1=恋花火
TTITLE2=告白日記
TTITLE3=撫子の華
TTITLE4=SAYONARA
TTITLE5=アオイトリ
TTITLE6=Once Again
TTITLE7=雪月花
TTITLE8=六月のうた
TTITLE9=Eternal Love
TTITLE10=OMOI
TTITLE11=CCCD
EXTD=YEAR: 2003
EXTT0=
EXTT1=
EXTT2=
EXTT3=
EXTT4=
EXTT5=
EXTT6=
EXTT7=
EXTT8=
EXTT9=
EXTT10=
EXTT11=
PLAYORDER=
